<?xml version="1.0" standalone="no"?>
<!DOCTYPE svg PUBLIC "-//W3C//DTD SVG 20010904//EN"
 "http://www.w3.org/TR/2001/REC-SVG-20010904/DTD/svg10.dtd">
<svg version="1.0" xmlns="http://www.w3.org/2000/svg"
 width="512.000000pt" height="512.000000pt" viewBox="0 0 512.000000 512.000000"
 preserveAspectRatio="xMidYMid meet">
<metadata>
Created by potrace 1.11, written by Peter Selinger 2001-2013
</metadata>
<g transform="translate(0.000000,512.000000) scale(0.100000,-0.100000)"
fill="#000000" stroke="none">
<path d="M3329 4497 c-25 -18 -57 -80 -172 -327 -77 -168 -142 -306 -143 -308
-1 -2 -24 12 -51 30 -166 117 -403 219 -560 242 -24 3 -60 9 -82 12 -66 10
-262 10 -330 1 -36 -5 -73 -9 -81 -9 -23 -1 -40 -18 -40 -42 0 -14 16 -32 47
-53 26 -18 41 -33 33 -33 -82 -2 -262 -47 -361 -89 -203 -88 -354 -230 -452
-426 -84 -168 -160 -449 -201 -735 -21 -150 -29 -546 -13 -700 69 -682 317
-1158 707 -1355 91 -46 170 -70 300 -91 104 -17 283 -8 420 22 86 19 221 59
267 80 17 8 34 14 38 14 4 0 41 16 82 35 41 19 76 35 78 35 10 0 233 131 310
183 221 147 460 357 630 553 79 91 165 202 165 214 0 5 4 10 8 10 4 0 16 15
27 33 10 17 21 34 25 37 11 9 105 172 137 240 68 145 88 230 88 385 -1 126 -9
178 -45 287 -32 97 -61 156 -120 254 -22 35 -40 66 -40 68 0 2 18 -1 40 -6 43
-11 70 0 70 30 0 20 -81 140 -149 221 -85 100 -187 195 -267 248 -11 7 -37 25
-59 39 -63 43 -211 110 -317 144 -54 18 -98 33 -98 34 0 1 14 30 30 64 17 34
30 64 30 67 0 2 34 75 75 161 41 86 75 158 75 160 0 2 16 36 35 75 50 104 47
152 -15 191 -42 27 -86 29 -121 5z"/>
</g>
</svg>
